<svg xmlns="http://www.w3.org/2000/svg" viewBox="0 0 1440 320">
  <path fill="#7b241c" fill-opacity="1" d="M0,160L16,170.7C32,181,64,203,96,208C128,213,160,203,192,176C224,149,256,107,288,96C320,85,352,107,384,149.3C416,192,448,256,480,282.7C512,309,544,299,576,293.3C608,288,640,288,672,240C704,192,736,96,768,101.3C800,107,832,213,864,245.3C896,277,928,235,960,197.3C992,160,1024,128,1056,138.7C1088,149,1120,203,1152,202.7C1184,203,1216,149,1248,133.3C1280,117,1312,139,1344,149.3C1376,160,1408,160,1424,160L1440,160L1440,0L1424,0C1408,0,1376,0,1344,0C1312,0,1280,0,1248,0C1216,0,1184,0,1152,0C1120,0,1088,0,1056,0C1024,0,992,0,960,0C928,0,896,0,864,0C832,0,800,0,768,0C736,0,704,0,672,0C640,0,608,0,576,0C544,0,512,0,480,0C448,0,416,0,384,0C352,0,320,0,288,0C256,0,224,0,192,0C160,0,128,0,96,0C64,0,32,0,16,0L0,0Z"></path>
</svg>